<svg width="48" height="48" viewBox="0 0 48 48" fill="none" xmlns="http://www.w3.org/2000/svg">
<circle cx="24" cy="24" r="24" fill="white"/>
<mask id="path-2-inside-1_363_137" fill="white">
<path d="M38.3437 12.75V18.375C38.3437 18.5988 38.2548 18.8134 38.0966 18.9716C37.9384 19.1299 37.7238 19.2187 37.5 19.2187C37.2762 19.2187 37.0616 19.1299 36.9034 18.9716C36.7451 18.8134 36.6562 18.5988 36.6562 18.375V13.5937H31.875C31.6512 13.5937 31.4366 13.5049 31.2784 13.3466C31.1201 13.1884 31.0312 12.9738 31.0312 12.75C31.0312 12.5262 31.1201 12.3116 31.2784 12.1534C31.4366 11.9951 31.6512 11.9063 31.875 11.9062H37.5C37.7238 11.9063 37.9384 11.9951 38.0966 12.1534C38.2548 12.3116 38.3437 12.5262 38.3437 12.75ZM16.125 34.4062H11.3437V29.625C11.3437 29.4012 11.2549 29.1866 11.0966 29.0284C10.9384 28.8701 10.7238 28.7812 10.5 28.7812C10.2762 28.7812 10.0616 28.8701 9.90338 29.0284C9.74514 29.1866 9.65625 29.4012 9.65625 29.625V35.25C9.65625 35.4738 9.74514 35.6884 9.90338 35.8466C10.0616 36.0048 10.2762 36.0937 10.5 36.0937H16.125C16.3488 36.0937 16.5634 36.0048 16.7216 35.8466C16.8799 35.6884 16.9687 35.4738 16.9687 35.25C16.9687 35.0262 16.8799 34.8116 16.7216 34.6534C16.5634 34.4951 16.3488 34.4062 16.125 34.4062ZM37.5 28.7812C37.2762 28.7812 37.0616 28.8701 36.9034 29.0284C36.7451 29.1866 36.6562 29.4012 36.6562 29.625V34.4062H31.875C31.6512 34.4062 31.4366 34.4951 31.2784 34.6534C31.1201 34.8116 31.0312 35.0262 31.0312 35.25C31.0312 35.4738 31.1201 35.6884 31.2784 35.8466C31.4366 36.0048 31.6512 36.0937 31.875 36.0937H37.5C37.7238 36.0937 37.9384 36.0048 38.0966 35.8466C38.2548 35.6884 38.3437 35.4738 38.3437 35.25V29.625C38.3437 29.4012 38.2548 29.1866 38.0966 29.0284C37.9384 28.8701 37.7238 28.7812 37.5 28.7812ZM10.5 19.2187C10.7238 19.2187 10.9384 19.1299 11.0966 18.9716C11.2549 18.8134 11.3437 18.5988 11.3437 18.375V13.5937H16.125C16.3488 13.5937 16.5634 13.5049 16.7216 13.3466C16.8799 13.1884 16.9687 12.9738 16.9687 12.75C16.9687 12.5262 16.8799 12.3116 16.7216 12.1534C16.5634 11.9951 16.3488 11.9063 16.125 11.9062H10.5C10.2762 11.9063 10.0616 11.9951 9.90338 12.1534C9.74514 12.3116 9.65625 12.5262 9.65625 12.75V18.375C9.65625 18.5988 9.74514 18.8134 9.90338 18.9716C10.0616 19.1299 10.2762 19.2187 10.5 19.2187ZM32.2969 29.2327L24.4219 33.7327C24.2936 33.8067 24.1481 33.8457 24 33.8457C23.8519 33.8457 23.7064 33.8067 23.5781 33.7327L15.7031 29.2327C15.5746 29.1584 15.4679 29.0516 15.3938 28.923C15.3197 28.7943 15.2809 28.6484 15.2812 28.5V19.5C15.2809 19.3516 15.3197 19.2057 15.3938 19.077C15.4679 18.9484 15.5746 18.8416 15.7031 18.7673L23.5781 14.2673C23.7064 14.1933 23.8519 14.1543 24 14.1543C24.1481 14.1543 24.2936 14.1933 24.4219 14.2673L32.2969 18.7673C32.4254 18.8416 32.5321 18.9484 32.6062 19.077C32.6803 19.2057 32.7191 19.3516 32.7187 19.5V28.5C32.7191 28.6484 32.6803 28.7943 32.6062 28.923C32.5321 29.0516 32.4254 29.1584 32.2969 29.2327ZM17.8252 19.5L24 23.0283L30.1748 19.5L24 15.9717L17.8252 19.5ZM16.9687 28.0106L23.1562 31.5459V24.4894L16.9687 20.9541V28.0106ZM31.0312 28.0106V20.9541L24.8437 24.4894V31.5459L31.0312 28.0106Z"/>
</mask>
<path d="M38.3437 12.75V18.375C38.3437 18.5988 38.2548 18.8134 38.0966 18.9716C37.9384 19.1299 37.7238 19.2187 37.5 19.2187C37.2762 19.2187 37.0616 19.1299 36.9034 18.9716C36.7451 18.8134 36.6562 18.5988 36.6562 18.375V13.5937H31.875C31.6512 13.5937 31.4366 13.5049 31.2784 13.3466C31.1201 13.1884 31.0312 12.9738 31.0312 12.75C31.0312 12.5262 31.1201 12.3116 31.2784 12.1534C31.4366 11.9951 31.6512 11.9063 31.875 11.9062H37.5C37.7238 11.9063 37.9384 11.9951 38.0966 12.1534C38.2548 12.3116 38.3437 12.5262 38.3437 12.75ZM16.125 34.4062H11.3437V29.625C11.3437 29.4012 11.2549 29.1866 11.0966 29.0284C10.9384 28.8701 10.7238 28.7812 10.5 28.7812C10.2762 28.7812 10.0616 28.8701 9.90338 29.0284C9.74514 29.1866 9.65625 29.4012 9.65625 29.625V35.25C9.65625 35.4738 9.74514 35.6884 9.90338 35.8466C10.0616 36.0048 10.2762 36.0937 10.5 36.0937H16.125C16.3488 36.0937 16.5634 36.0048 16.7216 35.8466C16.8799 35.6884 16.9687 35.4738 16.9687 35.25C16.9687 35.0262 16.8799 34.8116 16.7216 34.6534C16.5634 34.4951 16.3488 34.4062 16.125 34.4062ZM37.5 28.7812C37.2762 28.7812 37.0616 28.8701 36.9034 29.0284C36.7451 29.1866 36.6562 29.4012 36.6562 29.625V34.4062H31.875C31.6512 34.4062 31.4366 34.4951 31.2784 34.6534C31.1201 34.8116 31.0312 35.0262 31.0312 35.25C31.0312 35.4738 31.1201 35.6884 31.2784 35.8466C31.4366 36.0048 31.6512 36.0937 31.875 36.0937H37.5C37.7238 36.0937 37.9384 36.0048 38.0966 35.8466C38.2548 35.6884 38.3437 35.4738 38.3437 35.25V29.625C38.3437 29.4012 38.2548 29.1866 38.0966 29.0284C37.9384 28.8701 37.7238 28.7812 37.5 28.7812ZM10.5 19.2187C10.7238 19.2187 10.9384 19.1299 11.0966 18.9716C11.2549 18.8134 11.3437 18.5988 11.3437 18.375V13.5937H16.125C16.3488 13.5937 16.5634 13.5049 16.7216 13.3466C16.8799 13.1884 16.9687 12.9738 16.9687 12.75C16.9687 12.5262 16.8799 12.3116 16.7216 12.1534C16.5634 11.9951 16.3488 11.9063 16.125 11.9062H10.5C10.2762 11.9063 10.0616 11.9951 9.90338 12.1534C9.74514 12.3116 9.65625 12.5262 9.65625 12.75V18.375C9.65625 18.5988 9.74514 18.8134 9.90338 18.9716C10.0616 19.1299 10.2762 19.2187 10.5 19.2187ZM32.2969 29.2327L24.4219 33.7327C24.2936 33.8067 24.1481 33.8457 24 33.8457C23.8519 33.8457 23.7064 33.8067 23.5781 33.7327L15.7031 29.2327C15.5746 29.1584 15.4679 29.0516 15.3938 28.923C15.3197 28.7943 15.2809 28.6484 15.2812 28.5V19.5C15.2809 19.3516 15.3197 19.2057 15.3938 19.077C15.4679 18.9484 15.5746 18.8416 15.7031 18.7673L23.5781 14.2673C23.7064 14.1933 23.8519 14.1543 24 14.1543C24.1481 14.1543 24.2936 14.1933 24.4219 14.2673L32.2969 18.7673C32.4254 18.8416 32.5321 18.9484 32.6062 19.077C32.6803 19.2057 32.7191 19.3516 32.7187 19.5V28.5C32.7191 28.6484 32.6803 28.7943 32.6062 28.923C32.5321 29.0516 32.4254 29.1584 32.2969 29.2327ZM17.8252 19.5L24 23.0283L30.1748 19.5L24 15.9717L17.8252 19.5ZM16.9687 28.0106L23.1562 31.5459V24.4894L16.9687 20.9541V28.0106ZM31.0312 28.0106V20.9541L24.8437 24.4894V31.5459L31.0312 28.0106Z" fill="#73C322"/>
<path d="M38.3437 18.375H47.3437H38.3437ZM36.6562 13.5937H45.6562V4.59375H36.6562V13.5937ZM31.875 13.5937V22.5937V13.5937ZM31.875 11.9062L31.875 2.90625L31.875 11.9062ZM37.5 11.9062V2.90625V11.9062ZM11.3437 34.4062H2.34375V43.4062H11.3437V34.4062ZM11.3437 29.625L20.3437 29.625L11.3437 29.625ZM36.6562 34.4062V43.4062H45.6562V34.4062H36.6562ZM38.3437 29.625L47.3437 29.625L38.3437 29.625ZM11.3437 18.375H20.3437H11.3437ZM11.3437 13.5937V4.59375H2.34375V13.5937H11.3437ZM16.125 13.5937L16.125 22.5937L16.125 13.5937ZM16.125 11.9062V2.90625V11.9062ZM10.5 11.9062L10.5 2.90625L10.5 11.9062ZM32.2969 29.2327L36.7621 37.0468L36.7795 37.0369L36.7968 37.0269L32.2969 29.2327ZM24.4219 33.7327L19.9566 25.9185L19.9392 25.9284L19.9219 25.9384L24.4219 33.7327ZM23.5781 33.7327L28.0781 25.9384L28.0608 25.9284L28.0434 25.9185L23.5781 33.7327ZM15.7031 29.2327L11.2031 37.0269L11.2205 37.0369L11.2379 37.0468L15.7031 29.2327ZM15.2812 28.5L24.2812 28.5208L24.2812 28.5104V28.5H15.2812ZM15.2812 19.5H24.2812V19.4896L24.2812 19.4792L15.2812 19.5ZM15.7031 18.7673L11.2379 10.9532L11.2205 10.9631L11.2031 10.9731L15.7031 18.7673ZM23.5781 14.2673L28.0434 22.0815L28.0608 22.0716L28.0781 22.0616L23.5781 14.2673ZM24.4219 14.2673L19.9219 22.0616L19.9392 22.0716L19.9566 22.0815L24.4219 14.2673ZM32.2969 18.7673L36.7968 10.9731L36.7795 10.9631L36.7621 10.9532L32.2969 18.7673ZM32.7187 19.5L23.7188 19.4792L23.7187 19.4896V19.5H32.7187ZM32.7187 28.5H23.7187V28.5104L23.7188 28.5208L32.7187 28.5ZM17.8252 19.5L13.3601 11.6857L-0.315708 19.5L13.3601 27.3143L17.8252 19.5ZM24 23.0283L19.5349 30.8426L24 33.3939L28.4651 30.8426L24 23.0283ZM30.1748 19.5L34.6399 27.3143L48.3157 19.5L34.6399 11.6857L30.1748 19.5ZM24 15.9717L28.4651 8.15742L24 5.6061L19.5349 8.15742L24 15.9717ZM16.9687 28.0106H7.96875V33.2338L12.5039 35.825L16.9687 28.0106ZM23.1562 31.5459L18.6914 39.3603L32.1562 47.0537V31.5459H23.1562ZM23.1562 24.4894H32.1562V19.2662L27.6211 16.675L23.1562 24.4894ZM16.9687 20.9541L21.4336 13.1397L7.96875 5.44632V20.9541H16.9687ZM31.0312 28.0106L35.4961 35.825L40.0312 33.2338V28.0106H31.0312ZM31.0312 20.9541H40.0312V5.44632L26.5664 13.1397L31.0312 20.9541ZM24.8437 24.4894L20.3789 16.675L15.8437 19.2662V24.4894H24.8437ZM24.8437 31.5459H15.8437V47.0537L29.3086 39.3603L24.8437 31.5459ZM38.3437 12.75H29.3437V18.375H38.3437H47.3437V12.75H38.3437ZM38.3437 18.375L29.3437 18.375C29.3437 16.2118 30.2031 14.1372 31.7327 12.6077L38.0966 18.9716L44.4606 25.3356C46.3066 23.4895 47.3437 20.9857 47.3437 18.375L38.3437 18.375ZM38.0966 18.9716L31.7327 12.6077C33.2622 11.0781 35.3368 10.2187 37.5 10.2187V19.2187V28.2187C40.1107 28.2187 42.6145 27.1816 44.4606 25.3356L38.0966 18.9716ZM37.5 19.2187V10.2187C39.6632 10.2187 41.7377 11.0781 43.2673 12.6077L36.9034 18.9716L30.5394 25.3356C32.3855 27.1816 34.8893 28.2187 37.5 28.2187V19.2187ZM36.9034 18.9716L43.2673 12.6077C44.797 14.1373 45.6562 16.2119 45.6562 18.375H36.6562H27.6562C27.6562 20.9857 28.6933 23.4895 30.5394 25.3356L36.9034 18.9716ZM36.6562 18.375H45.6562V13.5937H36.6562H27.6562V18.375H36.6562ZM36.6562 13.5937V4.59375H31.875V13.5937V22.5937H36.6562V13.5937ZM31.875 13.5937L31.875 4.59375C34.0382 4.59375 36.1127 5.45307 37.6423 6.98266L31.2784 13.3466L24.9144 19.7106C26.7605 21.5566 29.2643 22.5937 31.875 22.5937L31.875 13.5937ZM31.2784 13.3466L37.6423 6.98266C39.1719 8.51224 40.0312 10.5868 40.0312 12.75H31.0312H22.0312C22.0312 15.3607 23.0684 17.8645 24.9144 19.7106L31.2784 13.3466ZM31.0312 12.75H40.0312C40.0312 14.9132 39.1719 16.9878 37.6423 18.5173L31.2784 12.1534L24.9144 5.78942C23.0684 7.63547 22.0312 10.1393 22.0312 12.75H31.0312ZM31.2784 12.1534L37.6423 18.5173C36.1127 20.0469 34.0382 20.9062 31.875 20.9062L31.875 11.9062L31.875 2.90625C29.2643 2.90625 26.7605 3.94336 24.9144 5.78942L31.2784 12.1534ZM31.875 11.9062V20.9062H37.5V11.9062V2.90625H31.875V11.9062ZM37.5 11.9062L37.5 20.9062C35.3368 20.9062 33.2622 20.0469 31.7327 18.5173L38.0966 12.1534L44.4606 5.78942C42.6145 3.94336 40.1107 2.90625 37.5 2.90625L37.5 11.9062ZM38.0966 12.1534L31.7327 18.5173C30.2031 16.9878 29.3437 14.9132 29.3437 12.75H38.3437H47.3437C47.3437 10.1393 46.3066 7.63547 44.4606 5.78942L38.0966 12.1534ZM16.125 34.4062V25.4062H11.3437V34.4062V43.4062H16.125V34.4062ZM11.3437 34.4062H20.3437V29.625H11.3437H2.34375V34.4062H11.3437ZM11.3437 29.625L20.3437 29.625C20.3437 27.0143 19.3067 24.5105 17.4606 22.6644L11.0966 29.0284L4.73266 35.3923C3.20306 33.8627 2.34375 31.7882 2.34375 29.625L11.3437 29.625ZM11.0966 29.0284L17.4606 22.6644C15.6145 20.8183 13.1107 19.7812 10.5 19.7812V28.7812V37.7812C8.33685 37.7812 6.26227 36.9219 4.73266 35.3923L11.0966 29.0284ZM10.5 28.7812V19.7812C7.8893 19.7812 5.38549 20.8183 3.53942 22.6644L9.90338 29.0284L16.2673 35.3923C14.7377 36.9219 12.6631 37.7812 10.5 37.7812V28.7812ZM9.90338 29.0284L3.53942 22.6644C1.69335 24.5105 0.65625 27.0143 0.65625 29.625H9.65625H18.6562C18.6562 31.7882 17.7969 33.8627 16.2673 35.3923L9.90338 29.0284ZM9.65625 29.625H0.65625V35.25H9.65625H18.6562V29.625H9.65625ZM9.65625 35.25H0.65625C0.65625 37.8607 1.69336 40.3645 3.53942 42.2106L9.90338 35.8466L16.2673 29.4827C17.7969 31.0122 18.6562 33.0868 18.6562 35.25H9.65625ZM9.90338 35.8466L3.53942 42.2106C5.38547 44.0566 7.88926 45.0937 10.5 45.0937V36.0937V27.0937C12.6632 27.0937 14.7378 27.9531 16.2673 29.4827L9.90338 35.8466ZM10.5 36.0937V45.0937H16.125V36.0937V27.0937H10.5V36.0937ZM16.125 36.0937V45.0937C18.7357 45.0937 21.2395 44.0566 23.0856 42.2106L16.7216 35.8466L10.3577 29.4827C11.8872 27.9531 13.9618 27.0937 16.125 27.0937V36.0937ZM16.7216 35.8466L23.0856 42.2106C24.9316 40.3645 25.9687 37.8607 25.9687 35.25H16.9687H7.96875C7.96875 33.0868 8.82808 31.0122 10.3577 29.4827L16.7216 35.8466ZM16.9687 35.25H25.9687C25.9687 32.6393 24.9316 30.1355 23.0856 28.2894L16.7216 34.6534L10.3577 41.0173C8.82807 39.4877 7.96875 37.4132 7.96875 35.25H16.9687ZM16.7216 34.6534L23.0856 28.2894C21.2395 26.4433 18.7357 25.4062 16.125 25.4062V34.4062V43.4062C13.9618 43.4062 11.8873 42.5469 10.3577 41.0173L16.7216 34.6534ZM37.5 28.7812V19.7812C34.8893 19.7812 32.3855 20.8183 30.5394 22.6644L36.9034 29.0284L43.2673 35.3923C41.7377 36.922 39.6631 37.7812 37.5 37.7812V28.7812ZM36.9034 29.0284L30.5394 22.6644C28.6933 24.5105 27.6562 27.0143 27.6562 29.625H36.6562H45.6562C45.6562 31.7881 44.797 33.8627 43.2673 35.3923L36.9034 29.0284ZM36.6562 29.625H27.6562V34.4062H36.6562H45.6562V29.625H36.6562ZM36.6562 34.4062V25.4062H31.875V34.4062V43.4062H36.6562V34.4062ZM31.875 34.4062V25.4062C29.2643 25.4062 26.7605 26.4433 24.9144 28.2894L31.2784 34.6534L37.6423 41.0173C36.1127 42.5469 34.0381 43.4062 31.875 43.4062V34.4062ZM31.2784 34.6534L24.9144 28.2894C23.0684 30.1355 22.0312 32.6393 22.0312 35.25H31.0312H40.0312C40.0312 37.4132 39.1719 39.4877 37.6423 41.0173L31.2784 34.6534ZM31.0312 35.25H22.0312C22.0312 37.8607 23.0684 40.3645 24.9144 42.2106L31.2784 35.8466L37.6423 29.4827C39.1719 31.0122 40.0312 33.0868 40.0312 35.25H31.0312ZM31.2784 35.8466L24.9144 42.2106C26.7605 44.0566 29.2642 45.0937 31.875 45.0937V36.0937V27.0937C34.0382 27.0937 36.1128 27.9531 37.6423 29.4827L31.2784 35.8466ZM31.875 36.0937V45.0937H37.5V36.0937V27.0937H31.875V36.0937ZM37.5 36.0937V45.0937C40.1107 45.0937 42.6145 44.0566 44.4606 42.2106L38.0966 35.8466L31.7327 29.4827C33.2622 27.9531 35.3368 27.0937 37.5 27.0937V36.0937ZM38.0966 35.8466L44.4606 42.2106C46.3066 40.3645 47.3437 37.8607 47.3437 35.25H38.3437H29.3437C29.3437 33.0868 30.2031 31.0122 31.7327 29.4827L38.0966 35.8466ZM38.3437 35.25H47.3437V29.625H38.3437H29.3437V35.25H38.3437ZM38.3437 29.625L47.3437 29.625C47.3437 27.0143 46.3066 24.5105 44.4606 22.6644L38.0966 29.0284L31.7327 35.3923C30.2031 33.8627 29.3437 31.7882 29.3437 29.625L38.3437 29.625ZM38.0966 29.0284L44.4606 22.6644C42.6145 20.8183 40.1107 19.7812 37.5 19.7812V28.7812V37.7812C35.3368 37.7812 33.2623 36.9219 31.7327 35.3923L38.0966 29.0284ZM10.5 19.2187V28.2187C13.1107 28.2187 15.6145 27.1816 17.4606 25.3356L11.0966 18.9716L4.73266 12.6077C6.26224 11.0781 8.33681 10.2187 10.5 10.2187V19.2187ZM11.0966 18.9716L17.4606 25.3356C19.3066 23.4895 20.3437 20.9857 20.3437 18.375L11.3437 18.375L2.34375 18.375C2.34375 16.2118 3.20307 14.1372 4.73266 12.6077L11.0966 18.9716ZM11.3437 18.375H20.3437V13.5937H11.3437H2.34375V18.375H11.3437ZM11.3437 13.5937V22.5937H16.125V13.5937V4.59375H11.3437V13.5937ZM16.125 13.5937L16.125 22.5937C18.7357 22.5937 21.2395 21.5566 23.0856 19.7106L16.7216 13.3466L10.3577 6.98266C11.8872 5.45307 13.9618 4.59375 16.125 4.59375L16.125 13.5937ZM16.7216 13.3466L23.0856 19.7106C24.9316 17.8645 25.9687 15.3607 25.9687 12.75H16.9687H7.96875C7.96875 10.5868 8.82808 8.51224 10.3577 6.98266L16.7216 13.3466ZM16.9687 12.75H25.9687C25.9687 10.1393 24.9316 7.63547 23.0856 5.78942L16.7216 12.1534L10.3577 18.5173C8.82808 16.9878 7.96875 14.9132 7.96875 12.75H16.9687ZM16.7216 12.1534L23.0856 5.78942C21.2395 3.94336 18.7357 2.90625 16.125 2.90625L16.125 11.9062L16.125 20.9062C13.9618 20.9062 11.8873 20.0469 10.3577 18.5173L16.7216 12.1534ZM16.125 11.9062V2.90625H10.5V11.9062V20.9062H16.125V11.9062ZM10.5 11.9062L10.5 2.90625C7.88928 2.90625 5.38548 3.94335 3.53942 5.78942L9.90338 12.1534L16.2673 18.5173C14.7377 20.0469 12.6632 20.9062 10.5 20.9062L10.5 11.9062ZM9.90338 12.1534L3.53942 5.78942C1.69335 7.63548 0.65625 10.1393 0.65625 12.75H9.65625H18.6562C18.6562 14.9132 17.7969 16.9877 16.2673 18.5173L9.90338 12.1534ZM9.65625 12.75H0.65625V18.375H9.65625H18.6562V12.75H9.65625ZM9.65625 18.375H0.65625C0.65625 20.9857 1.69336 23.4895 3.53942 25.3356L9.90338 18.9716L16.2673 12.6077C17.7969 14.1373 18.6562 16.2118 18.6562 18.375H9.65625ZM9.90338 18.9716L3.53942 25.3356C5.38547 27.1816 7.88926 28.2187 10.5 28.2187V19.2187V10.2187C12.6632 10.2187 14.7378 11.0781 16.2673 12.6077L9.90338 18.9716ZM32.2969 29.2327L27.8316 21.4185L19.9566 25.9185L24.4219 33.7327L28.8871 41.5468L36.7621 37.0468L32.2969 29.2327ZM24.4219 33.7327L19.9219 25.9384C21.1618 25.2226 22.5683 24.8457 24 24.8457V33.8457V42.8457C25.7279 42.8457 27.4254 42.3908 28.9219 41.5269L24.4219 33.7327ZM24 33.8457V24.8457C25.4317 24.8457 26.8382 25.2226 28.0781 25.9384L23.5781 33.7327L19.0781 41.5269C20.5746 42.3908 22.2721 42.8457 24 42.8457V33.8457ZM23.5781 33.7327L28.0434 25.9185L20.1684 21.4185L15.7031 29.2327L11.2379 37.0468L19.1129 41.5468L23.5781 33.7327ZM15.7031 29.2327L20.2031 21.4384C21.4458 22.1559 22.4772 23.1885 23.1932 24.432L15.3938 28.923L7.5944 33.414C8.45857 34.9148 9.70337 36.161 11.2031 37.0269L15.7031 29.2327ZM15.3938 28.923L23.1932 24.432C23.9092 25.6755 24.2845 27.0859 24.2812 28.5208L15.2812 28.5L6.28127 28.4792C6.27728 30.211 6.73021 31.9132 7.5944 33.414L15.3938 28.923ZM15.2812 28.5H24.2812V19.5H15.2812H6.28125V28.5H15.2812ZM15.2812 19.5L24.2812 19.4792C24.2845 20.9141 23.9092 22.3245 23.1932 23.568L15.3938 19.077L7.5944 14.586C6.73023 16.0868 6.27728 17.789 6.28127 19.5208L15.2812 19.5ZM15.3938 19.077L23.1932 23.568C22.4772 24.8115 21.4458 25.8441 20.2031 26.5616L15.7031 18.7673L11.2031 10.9731C9.70337 11.839 8.45857 13.0852 7.5944 14.586L15.3938 19.077ZM15.7031 18.7673L20.1684 26.5815L28.0434 22.0815L23.5781 14.2673L19.1129 6.45315L11.2379 10.9532L15.7031 18.7673ZM23.5781 14.2673L28.0781 22.0616C26.8382 22.7774 25.4317 23.1543 24 23.1543V14.1543V5.1543C22.2721 5.1543 20.5746 5.60915 19.0781 6.47311L23.5781 14.2673ZM24 14.1543V23.1543C22.5683 23.1543 21.1618 22.7774 19.9219 22.0616L24.4219 14.2673L28.9219 6.47311C27.4254 5.60915 25.7279 5.1543 24 5.1543V14.1543ZM24.4219 14.2673L19.9566 22.0815L27.8316 26.5815L32.2969 18.7673L36.7621 10.9532L28.8871 6.45316L24.4219 14.2673ZM32.2969 18.7673L27.7969 26.5616C26.5542 25.8441 25.5228 24.8115 24.8068 23.568L32.6062 19.077L40.4056 14.586C39.5414 13.0852 38.2966 11.839 36.7968 10.9731L32.2969 18.7673ZM32.6062 19.077L24.8068 23.568C24.0908 22.3246 23.7155 20.9142 23.7188 19.4792L32.7187 19.5L41.7187 19.5208C41.7227 17.789 41.2698 16.0868 40.4056 14.586L32.6062 19.077ZM32.7187 19.5H23.7187V28.5H32.7187H41.7187V19.5H32.7187ZM32.7187 28.5L23.7188 28.5208C23.7155 27.0859 24.0908 25.6755 24.8068 24.432L32.6062 28.923L40.4056 33.414C41.2698 31.9132 41.7227 30.211 41.7187 28.4792L32.7187 28.5ZM32.6062 28.923L24.8068 24.432C25.5228 23.1885 26.5542 22.1559 27.7969 21.4384L32.2969 29.2327L36.7968 37.0269C38.2966 36.161 39.5414 34.9148 40.4056 33.414L32.6062 28.923ZM17.8252 19.5L13.3601 27.3143L19.5349 30.8426L24 23.0283L28.4651 15.214L22.2902 11.6857L17.8252 19.5ZM24 23.0283L28.4651 30.8426L34.6399 27.3143L30.1748 19.5L25.7098 11.6857L19.5349 15.214L24 23.0283ZM30.1748 19.5L34.6399 11.6857L28.4651 8.15742L24 15.9717L19.5349 23.786L25.7098 27.3143L30.1748 19.5ZM24 15.9717L19.5349 8.15742L13.3601 11.6857L17.8252 19.5L22.2902 27.3143L28.4651 23.786L24 15.9717ZM16.9687 28.0106L12.5039 35.825L18.6914 39.3603L23.1562 31.5459L27.6211 23.7315L21.4336 20.1962L16.9687 28.0106ZM23.1562 31.5459H32.1562V24.4894H23.1562H14.1562V31.5459H23.1562ZM23.1562 24.4894L27.6211 16.675L21.4336 13.1397L16.9687 20.9541L12.5039 28.7685L18.6914 32.3038L23.1562 24.4894ZM16.9687 20.9541H7.96875V28.0106H16.9687H25.9687V20.9541H16.9687ZM31.0312 28.0106H40.0312V20.9541H31.0312H22.0312V28.0106H31.0312ZM31.0312 20.9541L26.5664 13.1397L20.3789 16.675L24.8437 24.4894L29.3086 32.3038L35.4961 28.7685L31.0312 20.9541ZM24.8437 24.4894H15.8437V31.5459H24.8437H33.8437V24.4894H24.8437ZM24.8437 31.5459L29.3086 39.3603L35.4961 35.825L31.0312 28.0106L26.5664 20.1962L20.3789 23.7315L24.8437 31.5459Z" fill="#73C322" mask="url(#path-2-inside-1_363_137)"/>
</svg>
