<?xml version="1.0" encoding="UTF-8"?>
<svg version="1.1" xmlns="http://www.w3.org/2000/svg" width="128" height="128">
<path d="M0 0 C2.82080078 1.23754883 2.82080078 1.23754883 5.6953125 2.95703125 C6.74074219 3.57513672 7.78617188 4.19324219 8.86328125 4.83007812 C9.93964844 5.48427734 11.01601562 6.13847656 12.125 6.8125 C13.20910156 7.45509766 14.29320312 8.09769531 15.41015625 8.75976562 C18.29296368 10.47911616 21.16584119 12.2015758 24 14 C24.75740479 14.40009277 25.51480957 14.80018555 26.29516602 15.21240234 C28.98495294 18.03276892 28.6697319 21.25503968 28.70703125 24.95703125 C28.72271652 25.73761398 28.73840179 26.51819672 28.75456238 27.32243347 C28.77918502 28.97402623 28.79276866 30.62581505 28.79614258 32.27758789 C28.81239244 34.79583211 28.89777962 37.30566296 28.98632812 39.82226562 C29.1914356 51.42967875 29.1914356 51.42967875 26.27954102 55.26757812 C23.92429593 56.85755593 21.62371413 57.91623267 19 59 C17.37764889 59.97399889 15.76935604 60.97178741 14.17578125 61.9921875 C12.5565107 62.9561941 10.93540938 63.91713207 9.3125 64.875 C8.49716797 65.37257813 7.68183594 65.87015625 6.84179688 66.3828125 C6.04451172 66.85203125 5.24722656 67.32125 4.42578125 67.8046875 C3.36484253 68.43866455 3.36484253 68.43866455 2.2824707 69.08544922 C-0.7047583 70.28238577 -2.79988683 70.3346507 -6 70 C-8.82080078 68.76245117 -8.82080078 68.76245117 -11.6953125 67.04296875 C-13.26345703 66.11581055 -13.26345703 66.11581055 -14.86328125 65.16992188 C-15.93964844 64.51572266 -17.01601563 63.86152344 -18.125 63.1875 C-19.20910156 62.54490234 -20.29320312 61.90230469 -21.41015625 61.24023438 C-24.29296368 59.52088384 -27.16584119 57.7984242 -30 56 C-30.75740479 55.59990723 -31.51480957 55.19981445 -32.29516602 54.78759766 C-34.98495294 51.96723108 -34.6697319 48.74496032 -34.70703125 45.04296875 C-34.72271652 44.26238602 -34.73840179 43.48180328 -34.75456238 42.67756653 C-34.77918502 41.02597377 -34.79276866 39.37418495 -34.79614258 37.72241211 C-34.81239244 35.20416789 -34.89777962 32.69433704 -34.98632812 30.17773438 C-35.1914356 18.57032125 -35.1914356 18.57032125 -32.27954102 14.73242188 C-29.92429593 13.14244407 -27.62371413 12.08376733 -25 11 C-23.37764889 10.02600111 -21.76935604 9.02821259 -20.17578125 8.0078125 C-18.5565107 7.0438059 -16.93540938 6.08286793 -15.3125 5.125 C-14.08950195 4.37863281 -14.08950195 4.37863281 -12.84179688 3.6171875 C-12.04451172 3.14796875 -11.24722656 2.67875 -10.42578125 2.1953125 C-9.71848877 1.77266113 -9.01119629 1.35000977 -8.2824707 0.91455078 C-5.2952417 -0.28238577 -3.20011317 -0.3346507 0 0 Z M-13.625 12.375 C-14.5221875 12.88289063 -15.419375 13.39078125 -16.34375 13.9140625 C-17.19195312 14.40390625 -18.04015625 14.89375 -18.9140625 15.3984375 C-19.6973291 15.84880371 -20.4805957 16.29916992 -21.28759766 16.76318359 C-21.85269043 17.17133301 -22.4177832 17.57948242 -23 18 C-23 18.66 -23 19.32 -23 20 C-20.12218379 22.19286303 -16.93262297 23.92480771 -13.8125 25.75 C-12.51602539 26.54857422 -12.51602539 26.54857422 -11.19335938 27.36328125 C-10.35224609 27.85699219 -9.51113281 28.35070312 -8.64453125 28.859375 C-7.48981323 29.54725098 -7.48981323 29.54725098 -6.31176758 30.24902344 C-3.97020886 31.24814486 -3.97020886 31.24814486 -1.45898438 30.26904297 C1.78849959 28.59639086 1.78849959 28.59639086 4.98828125 26.8359375 C5.69404297 26.43632813 6.39980469 26.03671875 7.12695312 25.625 C7.84818359 25.2125 8.56941406 24.8 9.3125 24.375 C10.05306641 23.95476563 10.79363281 23.53453125 11.55664062 23.1015625 C13.37269011 22.07051505 15.18656533 21.03563954 17 20 C17 19.34 17 18.68 17 18 C15.22288108 16.67148873 15.22288108 16.67148873 12.9140625 15.3984375 C12.06585938 14.90859375 11.21765625 14.41875 10.34375 13.9140625 C9.4465625 13.40617187 8.549375 12.89828125 7.625 12.375 C6.73554687 11.859375 5.84609375 11.34375 4.9296875 10.8125 C-3.46819266 6.002805 -5.41963133 7.61826454 -13.625 12.375 Z M-28 25 C-28 32.92 -28 40.84 -28 49 C-24.52229768 51.00258437 -21.04293733 53.00217947 -17.5625 55 C-16.56927734 55.57234375 -15.57605469 56.1446875 -14.55273438 56.734375 C-13.13637695 57.54648438 -13.13637695 57.54648438 -11.69140625 58.375 C-10.81685791 58.87773438 -9.94230957 59.38046875 -9.04125977 59.8984375 C-7.23991451 61.07915155 -7.23991451 61.07915155 -6 61 C-6 53.08 -6 45.16 -6 37 C-9.47770232 34.99741563 -12.95706267 32.99782053 -16.4375 31 C-17.92733398 30.14148438 -17.92733398 30.14148438 -19.44726562 29.265625 C-20.39150391 28.72421875 -21.33574219 28.1828125 -22.30859375 27.625 C-23.18314209 27.12226562 -24.05769043 26.61953125 -24.95874023 26.1015625 C-26.76008549 24.92084845 -26.76008549 24.92084845 -28 25 Z M16.30859375 27.625 C14.89223633 28.43710937 14.89223633 28.43710937 13.44726562 29.265625 C12.45404297 29.83796875 11.46082031 30.4103125 10.4375 31 C8.94186523 31.85851562 8.94186523 31.85851562 7.41601562 32.734375 C4.94291207 34.15433876 2.47131649 35.57692829 0 37 C0 44.92 0 52.84 0 61 C2.145 59.948125 4.29 58.89625 6.5 57.8125 C7.48709961 57.3326062 7.48709961 57.3326062 8.49414062 56.84301758 C9.68206316 56.25446548 10.85949085 55.64453668 12.02929688 55.02075195 C14 54 14 54 16.23632812 53.07885742 C18.64530747 51.93234784 20.2247208 51.00221347 22 49 C22.98650926 44.85963895 22.75685607 40.91327637 22.5 36.6875 C22.44585937 35.00430664 22.44585937 35.00430664 22.390625 33.28710938 C22.29646821 30.52125379 22.16512661 27.76237759 22 25 C19.97369382 25 18.000738 26.65227037 16.30859375 27.625 Z " fill="#72C221" transform="translate(67,29)"/>
<path d="M0 0 C1.67542976 0.28604898 3.34385343 0.61781233 5 1 C5.02886984 4.97915159 5.04675406 8.95827653 5.0625 12.9375 C5.07087891 14.07380859 5.07925781 15.21011719 5.08789062 16.38085938 C5.09272461 18.00024414 5.09272461 18.00024414 5.09765625 19.65234375 C5.10551147 21.15269165 5.10551147 21.15269165 5.11352539 22.68334961 C5 25 5 25 4 26 C2.21928754 26.08726223 0.4351686 26.10699041 -1.34765625 26.09765625 C-2.42724609 26.09443359 -3.50683594 26.09121094 -4.61914062 26.08789062 C-5.75544922 26.07951172 -6.89175781 26.07113281 -8.0625 26.0625 C-9.20267578 26.05798828 -10.34285156 26.05347656 -11.51757812 26.04882812 C-14.34510351 26.03699747 -17.1725264 26.0205141 -20 26 C-20.38218767 24.34385343 -20.71395102 22.67542976 -21 21 C-20 20 -20 20 -18.14233398 19.88647461 C-16.95619507 19.89432983 -16.95619507 19.89432983 -15.74609375 19.90234375 C-14.46508789 19.90717773 -14.46508789 19.90717773 -13.15820312 19.91210938 C-12.26037109 19.92048828 -11.36253906 19.92886719 -10.4375 19.9375 C-9.53580078 19.94201172 -8.63410156 19.94652344 -7.70507812 19.95117188 C-5.46998686 19.96299775 -3.23502563 19.9794778 -1 20 C-1.00785522 19.14450562 -1.00785522 19.14450562 -1.01586914 18.27172852 C-1.03658221 15.70199677 -1.0496419 13.13228253 -1.0625 10.5625 C-1.07087891 9.66466797 -1.07925781 8.76683594 -1.08789062 7.84179688 C-1.09272461 6.56079102 -1.09272461 6.56079102 -1.09765625 5.25390625 C-1.10551147 4.06776733 -1.10551147 4.06776733 -1.11352539 2.85766602 C-1 1 -1 1 0 0 Z " fill="#72C221" transform="translate(110,81)"/>
<path d="M0 0 C1.65 0.33 3.3 0.66 5 1 C5 7.27 5 13.54 5 20 C11.27 20 17.54 20 24 20 C24.33 21.65 24.66 23.3 25 25 C23.28432208 26.71567792 21.02627265 26.13015825 18.6875 26.1328125 C17.61242187 26.13410156 16.53734375 26.13539062 15.4296875 26.13671875 C14.29789063 26.13285156 13.16609375 26.12898438 12 26.125 C10.86820313 26.12886719 9.73640625 26.13273437 8.5703125 26.13671875 C7.49523437 26.13542969 6.42015625 26.13414063 5.3125 26.1328125 C4.31863281 26.13168457 3.32476562 26.13055664 2.30078125 26.12939453 C0 26 0 26 -1 25 C-1.09946453 23.23140807 -1.13080217 21.45888549 -1.1328125 19.6875 C-1.13410156 18.61242187 -1.13539062 17.53734375 -1.13671875 16.4296875 C-1.13091797 14.73199219 -1.13091797 14.73199219 -1.125 13 C-1.12886719 11.86820313 -1.13273438 10.73640625 -1.13671875 9.5703125 C-1.13542969 8.49523437 -1.13414063 7.42015625 -1.1328125 6.3125 C-1.13168457 5.31863281 -1.13055664 4.32476562 -1.12939453 3.30078125 C-1 1 -1 1 0 0 Z " fill="#72C221" transform="translate(14,81)"/>
<path d="M0 0 C1.07507813 -0.00128906 2.15015625 -0.00257812 3.2578125 -0.00390625 C4.38960937 -0.00003906 5.52140625 0.00382812 6.6875 0.0078125 C7.81929687 0.00394531 8.95109375 0.00007813 10.1171875 -0.00390625 C11.19226563 -0.00261719 12.26734375 -0.00132813 13.375 0 C14.86580078 0.00169189 14.86580078 0.00169189 16.38671875 0.00341797 C18.6875 0.1328125 18.6875 0.1328125 19.6875 1.1328125 C19.77476223 2.91352496 19.79449041 4.6976439 19.78515625 6.48046875 C19.78193359 7.56005859 19.77871094 8.63964844 19.77539062 9.75195312 C19.76701172 10.88826172 19.75863281 12.02457031 19.75 13.1953125 C19.74548828 14.33548828 19.74097656 15.47566406 19.73632812 16.65039062 C19.72449747 19.47791601 19.7080141 22.3053389 19.6875 25.1328125 C18.03135343 25.51500017 16.36292976 25.84676352 14.6875 26.1328125 C13.6875 25.1328125 13.6875 25.1328125 13.57397461 23.27514648 C13.57921143 22.48438721 13.58444824 21.69362793 13.58984375 20.87890625 C13.59234131 20.1098999 13.59483887 19.34089355 13.59741211 18.54858398 C13.60651611 17.56575439 13.61562012 16.5829248 13.625 15.5703125 C13.645625 12.4559375 13.66625 9.3415625 13.6875 6.1328125 C7.4175 6.1328125 1.1475 6.1328125 -5.3125 6.1328125 C-5.6425 4.4828125 -5.9725 2.8328125 -6.3125 1.1328125 C-4.59682208 -0.58286542 -2.33877265 0.00265425 0 0 Z " fill="#72C221" transform="translate(95.3125,20.8671875)"/>
<path d="M0 0 C1.00023193 0.00523682 2.00046387 0.01047363 3.03100586 0.01586914 C4.1105957 0.0190918 5.19018555 0.02231445 6.30249023 0.02563477 C8.00695312 0.03820312 8.00695312 0.03820312 9.74584961 0.05102539 C11.45611328 0.05779297 11.45611328 0.05779297 13.20092773 0.06469727 C16.02845312 0.07652792 18.85587601 0.09301129 21.68334961 0.11352539 C22.06553728 1.76967196 22.39730063 3.43809563 22.68334961 5.11352539 C21.68334961 6.11352539 21.68334961 6.11352539 19.82568359 6.22705078 C19.03492432 6.22181396 18.24416504 6.21657715 17.42944336 6.21118164 C16.66043701 6.20868408 15.89143066 6.20618652 15.09912109 6.20361328 C14.1162915 6.19450928 13.13346191 6.18540527 12.12084961 6.17602539 C7.44928711 6.14508789 7.44928711 6.14508789 2.68334961 6.11352539 C2.68334961 12.38352539 2.68334961 18.65352539 2.68334961 25.11352539 C1.03334961 25.44352539 -0.61665039 25.77352539 -2.31665039 26.11352539 C-4.03232831 24.39784747 -3.44680864 22.13979804 -3.44946289 19.80102539 C-3.45075195 18.72594727 -3.45204102 17.65086914 -3.45336914 16.54321289 C-3.44756836 14.84551758 -3.44756836 14.84551758 -3.44165039 13.11352539 C-3.44551758 11.98172852 -3.44938477 10.84993164 -3.45336914 9.68383789 C-3.45208008 8.60875977 -3.45079102 7.53368164 -3.44946289 6.42602539 C-3.44833496 5.4321582 -3.44720703 4.43829102 -3.44604492 3.41430664 C-3.2708435 0.29902694 -3.11838626 0.15281374 0 0 Z " fill="#72C221" transform="translate(16.316650390625,20.886474609375)"/>
</svg>
